<svg width="20" height="20" viewBox="0 0 20 20" fill="none" xmlns="http://www.w3.org/2000/svg">
<path d="M8.83268 13.8327L14.7077 7.95768L13.541 6.79102L8.83268 11.4993L6.45768 9.12435L5.29102 10.291L8.83268 13.8327ZM9.99935 18.3327C8.84657 18.3327 7.76324 18.1139 6.74935 17.6764C5.73546 17.2389 4.85352 16.6452 4.10352 15.8952C3.35352 15.1452 2.75977 14.2632 2.32227 13.2493C1.88477 12.2355 1.66602 11.1521 1.66602 9.99935C1.66602 8.84657 1.88477 7.76324 2.32227 6.74935C2.75977 5.73546 3.35352 4.85352 4.10352 4.10352C4.85352 3.35352 5.73546 2.75977 6.74935 2.32227C7.76324 1.88477 8.84657 1.66602 9.99935 1.66602C11.1521 1.66602 12.2355 1.88477 13.2493 2.32227C14.2632 2.75977 15.1452 3.35352 15.8952 4.10352C16.6452 4.85352 17.2389 5.73546 17.6764 6.74935C18.1139 7.76324 18.3327 8.84657 18.3327 9.99935C18.3327 11.1521 18.1139 12.2355 17.6764 13.2493C17.2389 14.2632 16.6452 15.1452 15.8952 15.8952C15.1452 16.6452 14.2632 17.2389 13.2493 17.6764C12.2355 18.1139 11.1521 18.3327 9.99935 18.3327Z" fill="#14171F"/>
</svg>
