<svg width="16" height="16" viewBox="0 0 16 16" fill="none" xmlns="http://www.w3.org/2000/svg">
<path d="M7.96732 12.0007C8.20065 12.0007 8.39787 11.9201 8.55898 11.759C8.7201 11.5979 8.80065 11.4007 8.80065 11.1673C8.80065 10.934 8.7201 10.7368 8.55898 10.5757C8.39787 10.4145 8.20065 10.334 7.96732 10.334C7.73398 10.334 7.53676 10.4145 7.37565 10.5757C7.21454 10.7368 7.13398 10.934 7.13398 11.1673C7.13398 11.4007 7.21454 11.5979 7.37565 11.759C7.53676 11.9201 7.73398 12.0007 7.96732 12.0007ZM7.36732 9.43398H8.60065C8.60065 9.06732 8.64232 8.77843 8.72565 8.56732C8.80898 8.35621 9.04509 8.06732 9.43398 7.70065C9.72287 7.41176 9.95065 7.13676 10.1173 6.87565C10.284 6.61454 10.3673 6.30065 10.3673 5.93398C10.3673 5.31176 10.1395 4.83398 9.68398 4.50065C9.22843 4.16732 8.68954 4.00065 8.06732 4.00065C7.43398 4.00065 6.92009 4.16732 6.52565 4.50065C6.13121 4.83398 5.85621 5.23398 5.70065 5.70065L6.80065 6.13398C6.85621 5.93398 6.98121 5.71732 7.17565 5.48398C7.3701 5.25065 7.66732 5.13398 8.06732 5.13398C8.42287 5.13398 8.68954 5.23121 8.86732 5.42565C9.04509 5.6201 9.13398 5.83398 9.13398 6.06732C9.13398 6.28954 9.06732 6.49787 8.93398 6.69232C8.80065 6.88676 8.63398 7.06732 8.43398 7.23398C7.9451 7.66732 7.64509 7.9951 7.53398 8.21732C7.42287 8.43954 7.36732 8.8451 7.36732 9.43398ZM8.00065 14.6673C7.07843 14.6673 6.21176 14.4923 5.40065 14.1423C4.58954 13.7923 3.88398 13.3173 3.28398 12.7173C2.68398 12.1173 2.20898 11.4118 1.85898 10.6007C1.50898 9.78954 1.33398 8.92287 1.33398 8.00065C1.33398 7.07843 1.50898 6.21176 1.85898 5.40065C2.20898 4.58954 2.68398 3.88398 3.28398 3.28398C3.88398 2.68398 4.58954 2.20898 5.40065 1.85898C6.21176 1.50898 7.07843 1.33398 8.00065 1.33398C8.92287 1.33398 9.78954 1.50898 10.6007 1.85898C11.4118 2.20898 12.1173 2.68398 12.7173 3.28398C13.3173 3.88398 13.7923 4.58954 14.1423 5.40065C14.4923 6.21176 14.6673 7.07843 14.6673 8.00065C14.6673 8.92287 14.4923 9.78954 14.1423 10.6007C13.7923 11.4118 13.3173 12.1173 12.7173 12.7173C12.1173 13.3173 11.4118 13.7923 10.6007 14.1423C9.78954 14.4923 8.92287 14.6673 8.00065 14.6673ZM8.00065 13.334C9.48954 13.334 10.7507 12.8173 11.784 11.784C12.8173 10.7507 13.334 9.48954 13.334 8.00065C13.334 6.51176 12.8173 5.25065 11.784 4.21732C10.7507 3.18398 9.48954 2.66732 8.00065 2.66732C6.51176 2.66732 5.25065 3.18398 4.21732 4.21732C3.18398 5.25065 2.66732 6.51176 2.66732 8.00065C2.66732 9.48954 3.18398 10.7507 4.21732 11.784C5.25065 12.8173 6.51176 13.334 8.00065 13.334Z" fill="#14171F"/>
</svg>
