<svg width="16" height="16" viewBox="0 0 16 16" fill="none" xmlns="http://www.w3.org/2000/svg">
<path d="M7.96732 12.0026C8.20065 12.0026 8.39787 11.922 8.55898 11.7609C8.7201 11.5998 8.80065 11.4026 8.80065 11.1693C8.80065 10.9359 8.7201 10.7387 8.55898 10.5776C8.39787 10.4165 8.20065 10.3359 7.96732 10.3359C7.73398 10.3359 7.53676 10.4165 7.37565 10.5776C7.21454 10.7387 7.13398 10.9359 7.13398 11.1693C7.13398 11.4026 7.21454 11.5998 7.37565 11.7609C7.53676 11.922 7.73398 12.0026 7.96732 12.0026ZM7.36732 9.43594H8.60065C8.60065 9.06927 8.64232 8.78038 8.72565 8.56927C8.80898 8.35816 9.04509 8.06927 9.43398 7.7026C9.72287 7.41371 9.95065 7.13871 10.1173 6.8776C10.284 6.61649 10.3673 6.3026 10.3673 5.93594C10.3673 5.31371 10.1395 4.83594 9.68398 4.5026C9.22843 4.16927 8.68954 4.0026 8.06732 4.0026C7.43398 4.0026 6.92009 4.16927 6.52565 4.5026C6.13121 4.83594 5.85621 5.23594 5.70065 5.7026L6.80065 6.13594C6.85621 5.93594 6.98121 5.71927 7.17565 5.48594C7.3701 5.2526 7.66732 5.13594 8.06732 5.13594C8.42287 5.13594 8.68954 5.23316 8.86732 5.4276C9.04509 5.62205 9.13398 5.83594 9.13398 6.06927C9.13398 6.29149 9.06732 6.49983 8.93398 6.69427C8.80065 6.88871 8.63398 7.06927 8.43398 7.23594C7.9451 7.66927 7.64509 7.99705 7.53398 8.21927C7.42287 8.44149 7.36732 8.84705 7.36732 9.43594ZM8.00065 14.6693C7.07843 14.6693 6.21176 14.4943 5.40065 14.1443C4.58954 13.7943 3.88398 13.3193 3.28398 12.7193C2.68398 12.1193 2.20898 11.4137 1.85898 10.6026C1.50898 9.79149 1.33398 8.92483 1.33398 8.0026C1.33398 7.08038 1.50898 6.21372 1.85898 5.4026C2.20898 4.59149 2.68398 3.88594 3.28398 3.28594C3.88398 2.68594 4.58954 2.21094 5.40065 1.86094C6.21176 1.51094 7.07843 1.33594 8.00065 1.33594C8.92287 1.33594 9.78954 1.51094 10.6007 1.86094C11.4118 2.21094 12.1173 2.68594 12.7173 3.28594C13.3173 3.88594 13.7923 4.59149 14.1423 5.4026C14.4923 6.21372 14.6673 7.08038 14.6673 8.0026C14.6673 8.92483 14.4923 9.79149 14.1423 10.6026C13.7923 11.4137 13.3173 12.1193 12.7173 12.7193C12.1173 13.3193 11.4118 13.7943 10.6007 14.1443C9.78954 14.4943 8.92287 14.6693 8.00065 14.6693Z" fill="#14171F"/>
</svg>
