<svg width="20" height="20" viewBox="0 0 20 20" fill="none" xmlns="http://www.w3.org/2000/svg">
<path d="M1.66671 4.39165L2.73337 3.33331L16.6667 17.2666L15.6084 18.3333L13.0417 15.7666C12.0834 16.0833 11.0667 16.25 10 16.25C5.83337 16.25 2.27504 13.6583 0.833374 9.99998C1.40837 8.53331 2.32504 7.24165 3.49171 6.21665L1.66671 4.39165ZM10 7.49998C10.6631 7.49998 11.299 7.76337 11.7678 8.23221C12.2366 8.70105 12.5 9.33694 12.5 9.99998C12.5005 10.2838 12.4526 10.5656 12.3584 10.8333L9.16671 7.64165C9.43443 7.54747 9.71624 7.49956 10 7.49998ZM10 3.74998C14.1667 3.74998 17.725 6.34165 19.1667 9.99998C18.4862 11.7274 17.3305 13.2269 15.8334 14.325L14.65 13.1333C15.8025 12.3362 16.7319 11.2576 17.35 9.99998C16.6764 8.62487 15.6305 7.46634 14.3312 6.65611C13.0319 5.84588 11.5313 5.41645 10 5.41665C9.09171 5.41665 8.20004 5.56665 7.36671 5.83331L6.08337 4.55831C7.28337 4.04165 8.60837 3.74998 10 3.74998ZM2.65004 9.99998C3.32366 11.3751 4.36959 12.5336 5.6689 13.3439C6.96822 14.1541 8.4688 14.5835 10 14.5833C10.575 14.5833 11.1417 14.525 11.6667 14.4083L9.76671 12.5C9.18684 12.4378 8.64573 12.179 8.23335 11.7667C7.82098 11.3543 7.56219 10.8132 7.50004 10.2333L4.66671 7.39165C3.84171 8.09998 3.15004 8.98331 2.65004 9.99998Z" fill="#14171F"/>
</svg>
