<svg width="16" height="16" viewBox="0 0 16 16" fill="none" xmlns="http://www.w3.org/2000/svg">
<path d="M8 11.5C8.19833 11.5 8.36458 11.4329 8.49875 11.2987C8.63292 11.1646 8.7 10.9983 8.7 10.8C8.7 10.6017 8.63292 10.4354 8.49875 10.3013C8.36458 10.1671 8.19833 10.1 8 10.1C7.80167 10.1 7.63542 10.1671 7.50125 10.3013C7.36708 10.4354 7.3 10.6017 7.3 10.8C7.3 10.9983 7.36708 11.1646 7.50125 11.2987C7.63542 11.4329 7.80167 11.5 8 11.5ZM7.3 8.7H8.7V4.5H7.3V8.7ZM8 15C7.03167 15 6.12167 14.8162 5.27 14.4488C4.41833 14.0813 3.6775 13.5825 3.0475 12.9525C2.4175 12.3225 1.91875 11.5817 1.55125 10.73C1.18375 9.87833 1 8.96833 1 8C1 7.03167 1.18375 6.12167 1.55125 5.27C1.91875 4.41833 2.4175 3.6775 3.0475 3.0475C3.6775 2.4175 4.41833 1.91875 5.27 1.55125C6.12167 1.18375 7.03167 1 8 1C8.96833 1 9.87833 1.18375 10.73 1.55125C11.5817 1.91875 12.3225 2.4175 12.9525 3.0475C13.5825 3.6775 14.0813 4.41833 14.4488 5.27C14.8162 6.12167 15 7.03167 15 8C15 8.96833 14.8162 9.87833 14.4488 10.73C14.0813 11.5817 13.5825 12.3225 12.9525 12.9525C12.3225 13.5825 11.5817 14.0813 10.73 14.4488C9.87833 14.8162 8.96833 15 8 15ZM8 13.6C9.56333 13.6 10.8875 13.0575 11.9725 11.9725C13.0575 10.8875 13.6 9.56333 13.6 8C13.6 6.43667 13.0575 5.1125 11.9725 4.0275C10.8875 2.9425 9.56333 2.4 8 2.4C6.43667 2.4 5.1125 2.9425 4.0275 4.0275C2.9425 5.1125 2.4 6.43667 2.4 8C2.4 9.56333 2.9425 10.8875 4.0275 11.9725C5.1125 13.0575 6.43667 13.6 8 13.6Z" fill="#14171F"/>
</svg>
